<svg viewBox="0 0 10 17" fill="none" xmlns="http://www.w3.org/2000/svg">
    <path fill="currentColor" d="M7.5296 15.9313L0.649559 9.07164C0.567897 8.98998 0.510189 8.90152 0.476435 8.80624C0.442137 8.71097 0.424988 8.60889 0.424988 8.50001C0.424988 8.39113 0.442137 8.28905 0.476435 8.19378C0.510189 8.0985 0.567897 8.01004 0.649559 7.92837L7.5296 1.04833C7.72015 0.857785 7.95833 0.762512 8.24415 0.762512C8.52996 0.762512 8.77495 0.86459 8.97911 1.06875C9.18326 1.2729 9.28534 1.51108 9.28534 1.78329C9.28534 2.0555 9.18326 2.29368 8.97911 2.49783L2.97693 8.50001L8.97911 14.5022C9.16965 14.6927 9.26493 14.9274 9.26493 15.2061C9.26493 15.4854 9.16285 15.7271 8.95869 15.9313C8.75454 16.1354 8.51635 16.2375 8.24415 16.2375C7.97194 16.2375 7.73376 16.1354 7.5296 15.9313Z"/>
</svg>
